<mxfile host="app.diagrams.net" modified="2022-05-07T10:06:10.823Z" agent="5.0 (Macintosh; Intel Mac OS X 10_15_7) AppleWebKit/537.36 (KHTML, like Gecko) Chrome/101.0.4951.54 Safari/537.36" etag="__aWvHxrqNhtKyKGAIIM" version="18.0.1" type="github">
  <diagram id="JbJMTWtFGAmyxCleACR5" name="第 1 页">
    <mxGraphModel dx="951" dy="643" grid="1" gridSize="10" guides="1" tooltips="1" connect="1" arrows="1" fold="1" page="1" pageScale="1" pageWidth="827" pageHeight="1169" math="0" shadow="0">
      <root>
        <mxCell id="0" />
        <mxCell id="1" parent="0" />
        <mxCell id="OxVVbPpTMVadUJQDugjq-2" value="index1" style="rounded=0;whiteSpace=wrap;html=1;fontSize=29;fillColor=#6a00ff;fontColor=#ffffff;strokeColor=#3700CC;" vertex="1" parent="1">
          <mxGeometry x="430" y="120" width="170" height="60" as="geometry" />
        </mxCell>
        <mxCell id="OxVVbPpTMVadUJQDugjq-3" value="index2" style="rounded=0;whiteSpace=wrap;html=1;fontSize=29;fillColor=#6a00ff;fontColor=#ffffff;strokeColor=#3700CC;" vertex="1" parent="1">
          <mxGeometry x="430" y="180" width="170" height="60" as="geometry" />
        </mxCell>
        <mxCell id="OxVVbPpTMVadUJQDugjq-4" value="delete" style="rounded=0;whiteSpace=wrap;html=1;fontSize=29;fillColor=#6a00ff;fontColor=#ffffff;strokeColor=#3700CC;" vertex="1" parent="1">
          <mxGeometry x="430" y="240" width="170" height="60" as="geometry" />
        </mxCell>
        <mxCell id="OxVVbPpTMVadUJQDugjq-5" value="√" style="rounded=0;whiteSpace=wrap;html=1;fontSize=29;fillColor=#6a00ff;fontColor=#ffffff;strokeColor=#3700CC;" vertex="1" parent="1">
          <mxGeometry x="430" y="300" width="170" height="60" as="geometry" />
        </mxCell>
        <mxCell id="OxVVbPpTMVadUJQDugjq-6" value="index3" style="rounded=0;whiteSpace=wrap;html=1;fontSize=29;fillColor=#6a00ff;fontColor=#ffffff;strokeColor=#3700CC;" vertex="1" parent="1">
          <mxGeometry x="430" y="360" width="170" height="60" as="geometry" />
        </mxCell>
        <mxCell id="OxVVbPpTMVadUJQDugjq-7" value="" style="rounded=0;whiteSpace=wrap;html=1;fontSize=29;fillColor=#6a00ff;fontColor=#ffffff;strokeColor=#3700CC;" vertex="1" parent="1">
          <mxGeometry x="430" y="420" width="170" height="60" as="geometry" />
        </mxCell>
        <mxCell id="OxVVbPpTMVadUJQDugjq-8" value="" style="shape=curlyBracket;whiteSpace=wrap;html=1;rounded=1;fontSize=29;strokeWidth=2;" vertex="1" parent="1">
          <mxGeometry x="390" y="120" width="20" height="360" as="geometry" />
        </mxCell>
        <mxCell id="OxVVbPpTMVadUJQDugjq-9" value="" style="ellipse;whiteSpace=wrap;html=1;strokeWidth=2;fillWeight=2;hachureGap=8;fillColor=#990000;fillStyle=dots;sketch=1;fontSize=29;" vertex="1" parent="1">
          <mxGeometry x="220" y="270" width="120" height="60" as="geometry" />
        </mxCell>
        <mxCell id="OxVVbPpTMVadUJQDugjq-10" value="Hash Func" style="text;html=1;align=center;verticalAlign=middle;resizable=0;points=[];autosize=1;strokeColor=none;fillColor=none;fontSize=29;" vertex="1" parent="1">
          <mxGeometry x="200" y="340" width="160" height="40" as="geometry" />
        </mxCell>
        <mxCell id="OxVVbPpTMVadUJQDugjq-11" value="" style="curved=1;endArrow=classic;html=1;rounded=0;fontSize=29;strokeWidth=2;exitX=1.011;exitY=0.38;exitDx=0;exitDy=0;exitPerimeter=0;" edge="1" parent="1" source="OxVVbPpTMVadUJQDugjq-2">
          <mxGeometry width="50" height="50" relative="1" as="geometry">
            <mxPoint x="680" y="140" as="sourcePoint" />
            <mxPoint x="610" y="220" as="targetPoint" />
            <Array as="points">
              <mxPoint x="620" y="144" />
              <mxPoint x="640" y="170" />
            </Array>
          </mxGeometry>
        </mxCell>
      </root>
    </mxGraphModel>
  </diagram>
</mxfile>
